HIERARCHY
ROOT Root
{
  OFFSET 0.0 0.0 0.0
  CHANNELS 6 Xposition Yposition Zposition Zrotation Yrotation Xrotation
  JOINT Hips
  {
    OFFSET 0.0 100.0 0.0
    CHANNELS 6 Xposition Yposition Zposition Zrotation Yrotation Xrotation
    JOINT Spine1
    {
      OFFSET 5.003913 -0.037094 -0.013727
      CHANNELS 3 Zrotation Yrotation Xrotation
      JOINT Spine2
      {
        OFFSET 7.125363 -1e-06 0.0
        CHANNELS 3 Zrotation Yrotation Xrotation
        JOINT Chest
        {
          OFFSET 7.594027 1e-06 0.0
          CHANNELS 3 Zrotation Yrotation Xrotation
          JOINT Neck1
          {
            OFFSET 26.313086 -0.460272 -0.181672
            CHANNELS 3 Zrotation Yrotation Xrotation
            JOINT Neck2
            {
              OFFSET 8.045911 0.0 0.0
              CHANNELS 3 Zrotation Yrotation Xrotation
              JOINT Head
              {
                OFFSET 6.432774 0.0 0.0
                CHANNELS 3 Zrotation Yrotation Xrotation
                JOINT HeadEnd
                {
                  OFFSET 16.169773 0.06451 0.00362
                  CHANNELS 3 Zrotation Yrotation Xrotation
                }
                JOINT Jaw
                {
                  OFFSET 0.108741 3.12938 0.002639
                  CHANNELS 3 Zrotation Yrotation Xrotation
                }
                JOINT LeftEye
                {
                  OFFSET 4.45173 8.166359 3.206392
                  CHANNELS 3 Zrotation Yrotation Xrotation
                }
                JOINT RightEye
                {
                  OFFSET 4.436895 8.135758 -3.222429
                  CHANNELS 3 Zrotation Yrotation Xrotation
                }
              }
            }
          }
          JOINT LeftShoulder
          {
            OFFSET 23.218927 5.195579 1.621656
            CHANNELS 3 Zrotation Yrotation Xrotation
            JOINT LeftArm
            {
              OFFSET 15.902118 2e-06 -2e-06
              CHANNELS 3 Zrotation Yrotation Xrotation
              JOINT LeftForeArm
              {
                OFFSET 28.739307 0.0 -1e-06
                CHANNELS 3 Zrotation Yrotation Xrotation
                JOINT LeftHand
                {
                  OFFSET 27.093981 -4e-06 0.0
                  CHANNELS 3 Zrotation Yrotation Xrotation
                  JOINT LeftHandThumb1
                  {
                    OFFSET 2.276781 3.380274 0.83384
                    CHANNELS 3 Zrotation Yrotation Xrotation
                    JOINT LeftHandThumb2
                    {
                      OFFSET 4.705309 -1e-06 -1e-06
                      CHANNELS 3 Zrotation Yrotation Xrotation
                      JOINT LeftHandThumb3
                      {
                        OFFSET 2.798515 0.0 3e-06
                        CHANNELS 3 Zrotation Yrotation Xrotation
                        JOINT LeftHandThumbEnd
                        {
                          OFFSET 3.180793 4e-06 -4e-06
                          CHANNELS 3 Zrotation Yrotation Xrotation
                        }
                      }
                    }
                  }
                  JOINT LeftHandIndex1
                  {
                    OFFSET 3.247786 2.352677 0.137192
                    CHANNELS 3 Zrotation Yrotation Xrotation
                    JOINT LeftHandIndex2
                    {
                      OFFSET 6.367095 1e-06 0.0
                      CHANNELS 3 Zrotation Yrotation Xrotation
                      JOINT LeftHandIndex3
                      {
                        OFFSET 3.662364 0.0 0.0
                        CHANNELS 3 Zrotation Yrotation Xrotation
                        JOINT LeftHandIndex4
                        {
                          OFFSET 2.329242 4e-06 -4e-06
                          CHANNELS 3 Zrotation Yrotation Xrotation
                          JOINT LeftHandIndexEnd
                          {
                            OFFSET 2.767823 1e-06 0.0
                            CHANNELS 3 Zrotation Yrotation Xrotation
                          }
                        }
                      }
                    }
                  }
                  JOINT LeftHandMiddle1
                  {
                    OFFSET 3.163612 0.945023 -0.406112
                    CHANNELS 3 Zrotation Yrotation Xrotation
                    JOINT LeftHandMiddle2
                    {
                      OFFSET 6.276789 3e-06 0.0
                      CHANNELS 3 Zrotation Yrotation Xrotation
                      JOINT LeftHandMiddle3
                      {
                        OFFSET 4.35652 -1e-06 4e-06
                        CHANNELS 3 Zrotation Yrotation Xrotation
                        JOINT LeftHandMiddle4
                        {
                          OFFSET 2.996877 0.0 8e-06
                          CHANNELS 3 Zrotation Yrotation Xrotation
                          JOINT LeftHandMiddleEnd
                          {
                            OFFSET 2.323256 3e-06 -4e-06
                            CHANNELS 3 Zrotation Yrotation Xrotation
                          }
                        }
                      }
                    }
                  }
                  JOINT LeftHandRing1
                  {
                    OFFSET 2.882606 -0.309162 0.107445
                    CHANNELS 3 Zrotation Yrotation Xrotation
                    JOINT LeftHandRing2
                    {
                      OFFSET 6.033198 0.0 4e-06
                      CHANNELS 3 Zrotation Yrotation Xrotation
                      JOINT LeftHandRing3
                      {
                        OFFSET 4.350578 3e-06 0.0
                        CHANNELS 3 Zrotation Yrotation Xrotation
                        JOINT LeftHandRing4
                        {
                          OFFSET 2.651321 2e-06 -7e-06
                          CHANNELS 3 Zrotation Yrotation Xrotation
                          JOINT LeftHandRingEnd
                          {
                            OFFSET 1.937663 1e-06 -4e-06
                            CHANNELS 3 Zrotation Yrotation Xrotation
                          }
                        }
                      }
                    }
                  }
                  JOINT LeftHandPinky1
                  {
                    OFFSET 2.865315 -1.525436 0.575687
                    CHANNELS 3 Zrotation Yrotation Xrotation
                    JOINT LeftHandPinky2
                    {
                      OFFSET 5.54936 1e-06 -8e-06
                      CHANNELS 3 Zrotation Yrotation Xrotation
                      JOINT LeftHandPinky3
                      {
                        OFFSET 3.070974 0.0 -4e-06
                        CHANNELS 3 Zrotation Yrotation Xrotation
                        JOINT LeftHandPinky4
                        {
                          OFFSET 1.549672 1e-06 0.0
                          CHANNELS 3 Zrotation Yrotation Xrotation
                          JOINT LeftHandPinkyEnd
                          {
                            OFFSET 1.952123 0.0 0.0
                            CHANNELS 3 Zrotation Yrotation Xrotation
                          }
                        }
                      }
                    }
                  }
                }
              }
            }
          }
          JOINT RightShoulder
          {
            OFFSET 23.161716 5.296122 -1.380114
            CHANNELS 3 Zrotation Yrotation Xrotation
            JOINT RightArm
            {
              OFFSET -16.027195 -2e-06 1.1e-05
              CHANNELS 3 Zrotation Yrotation Xrotation
              JOINT RightForeArm
              {
                OFFSET -28.736639 4e-06 2e-06
                CHANNELS 3 Zrotation Yrotation Xrotation
                JOINT RightHand
                {
                  OFFSET -27.133619 6e-06 0.0
                  CHANNELS 3 Zrotation Yrotation Xrotation
                  JOINT RightHandThumb1
                  {
                    OFFSET -2.274328 -3.351035 -0.83067
                    CHANNELS 3 Zrotation Yrotation Xrotation
                    JOINT RightHandThumb2
                    {
                      OFFSET -4.703594 -3e-06 2e-06
                      CHANNELS 3 Zrotation Yrotation Xrotation
                      JOINT RightHandThumb3
                      {
                        OFFSET -2.794935 -4e-06 -3e-06
                        CHANNELS 3 Zrotation Yrotation Xrotation
                        JOINT RightHandThumbEnd
                        {
                          OFFSET -3.183852 4e-06 1e-06
                          CHANNELS 3 Zrotation Yrotation Xrotation
                        }
                      }
                    }
                  }
                  JOINT RightHandIndex1
                  {
                    OFFSET -3.253496 -2.33755 -0.127667
                    CHANNELS 3 Zrotation Yrotation Xrotation
                    JOINT RightHandIndex2
                    {
                      OFFSET -6.344434 0.0 0.0
                      CHANNELS 3 Zrotation Yrotation Xrotation
                      JOINT RightHandIndex3
                      {
                        OFFSET -3.654871 0.0 -8e-06
                        CHANNELS 3 Zrotation Yrotation Xrotation
                        JOINT RightHandIndex4
                        {
                          OFFSET -2.327586 -1e-06 0.0
                          CHANNELS 3 Zrotation Yrotation Xrotation
                          JOINT RightHandIndexEnd
                          {
                            OFFSET -2.770001 3e-06 8e-06
                            CHANNELS 3 Zrotation Yrotation Xrotation
                          }
                        }
                      }
                    }
                  }
                  JOINT RightHandMiddle1
                  {
                    OFFSET -3.168223 -0.944764 0.411762
                    CHANNELS 3 Zrotation Yrotation Xrotation
                    JOINT RightHandMiddle2
                    {
                      OFFSET -6.266691 -1e-06 -4e-06
                      CHANNELS 3 Zrotation Yrotation Xrotation
                      JOINT RightHandMiddle3
                      {
                        OFFSET -4.348901 0.0 0.0
                        CHANNELS 3 Zrotation Yrotation Xrotation
                        JOINT RightHandMiddle4
                        {
                          OFFSET -3.00024 2e-06 -4e-06
                          CHANNELS 3 Zrotation Yrotation Xrotation
                          JOINT RightHandMiddleEnd
                          {
                            OFFSET -2.321477 -4e-06 -4e-06
                            CHANNELS 3 Zrotation Yrotation Xrotation
                          }
                        }
                      }
                    }
                  }
                  JOINT RightHandRing1
                  {
                    OFFSET -2.885654 0.293261 -0.119232
                    CHANNELS 3 Zrotation Yrotation Xrotation
                    JOINT RightHandRing2
                    {
                      OFFSET -6.032835 -1e-06 -4e-06
                      CHANNELS 3 Zrotation Yrotation Xrotation
                      JOINT RightHandRing3
                      {
                        OFFSET -4.33881 0.0 -4e-06
                        CHANNELS 3 Zrotation Yrotation Xrotation
                        JOINT RightHandRing4
                        {
                          OFFSET -2.654903 -4e-06 -4e-06
                          CHANNELS 3 Zrotation Yrotation Xrotation
                          JOINT RightHandRingEnd
                          {
                            OFFSET -1.935122 0.0 4e-06
                            CHANNELS 3 Zrotation Yrotation Xrotation
                          }
                        }
                      }
                    }
                  }
                  JOINT RightHandPinky1
                  {
                    OFFSET -2.866241 1.503904 -0.60527
                    CHANNELS 3 Zrotation Yrotation Xrotation
                    JOINT RightHandPinky2
                    {
                      OFFSET -5.553177 -2e-06 0.0
                      CHANNELS 3 Zrotation Yrotation Xrotation
                      JOINT RightHandPinky3
                      {
                        OFFSET -3.062664 -1e-06 -4e-06
                        CHANNELS 3 Zrotation Yrotation Xrotation
                        JOINT RightHandPinky4
                        {
                          OFFSET -1.546529 2e-06 4e-06
                          CHANNELS 3 Zrotation Yrotation Xrotation
                          JOINT RightHandPinkyEnd
                          {
                            OFFSET -1.952341 0.0 -4e-06
                            CHANNELS 3 Zrotation Yrotation Xrotation
                          }
                        }
                      }
                    }
                  }
                }
              }
            }
          }
        }
      }
    }
    JOINT LeftLeg
    {
      OFFSET -8.443107 2.567604 10.043214
      CHANNELS 3 Zrotation Yrotation Xrotation
      JOINT LeftShin
      {
        OFFSET 43.229198 1e-06 -1e-06
        CHANNELS 3 Zrotation Yrotation Xrotation
        JOINT LeftFoot
        {
          OFFSET 42.298611 1e-06 1e-06
          CHANNELS 3 Zrotation Yrotation Xrotation
          JOINT LeftToeBase
          {
            OFFSET 14.165858 1e-06 0.0
            CHANNELS 3 Zrotation Yrotation Xrotation
            JOINT LeftToeEnd
            {
              OFFSET 6.7141 -0.234461 0.0
              CHANNELS 3 Zrotation Yrotation Xrotation
            }
          }
        }
      }
    }
    JOINT RightLeg
    {
      OFFSET -8.303923 2.592729 -10.047278
      CHANNELS 3 Zrotation Yrotation Xrotation
      JOINT RightShin
      {
        OFFSET -43.369682 0.0 1e-06
        CHANNELS 3 Zrotation Yrotation Xrotation
        JOINT RightFoot
        {
          OFFSET -42.260784 4e-06 2e-06
          CHANNELS 3 Zrotation Yrotation Xrotation
          JOINT RightToeBase
          {
            OFFSET -14.222245 -2e-06 -1e-06
            CHANNELS 3 Zrotation Yrotation Xrotation
            JOINT RightToeEnd
            {
              OFFSET -6.660062 0.232574 -2e-06
              CHANNELS 3 Zrotation Yrotation Xrotation
            }
          }
        }
      }
    }
  }
}
MOTION
Frames: 5
Frame Time: 0.03333333333333333
0.0 0.0 0.0 0.0 -0.0 0.0 5.178289 99.627876 1.636492 92.156212 2.054374 90.171043 -4.206761 -0.180895 -0.064921 -12.730855 -0.779529 0.143657 22.550083 -1.784188 -2.430733 18.839817 3.961776 2.418762 -2.429425 -0.946182 -0.754102 -22.123556 -0.957099 -1.426771 6e-06 0.0 -0.0 -0.075409 0.01034 0.036041 -0.016358 0.136615 0.059151 0.006234 -0.117955 0.011873 -103.10257 -76.903946 118.533287 46.225288 -60.863209 7.703116 25.008574 -0.126042 0.174317 1.175685 -0.965356 16.740612 17.636621 -26.322737 52.411205 -19.466661 -14.395598 29.410395 -1e-06 -8.774821 -2e-06 15.871705 -18.154617 6.229155 -0.609776 -1.795653 -3.889328 -4.80709 -11.046811 -2.937851 3e-06 -20.976017 -1e-06 -5.019971 -25.033558 -4.031879 8e-06 -2e-06 -0.0 -10.634533 -5.686971 -3.565586 10.573271 -17.922951 -3.113903 2e-06 -13.821206 1e-06 -0.501779 -31.181505 -4.027015 -11.120319 -59.75079 7.164725 -13.982712 -7.150197 -2.875044 13.772727 -8.401492 -3.218242 0.347731 -34.211552 0.771658 -0.963031 -17.733372 2.62102 1e-06 3e-06 0.0 -17.346415 -20.095217 -4.201786 21.757557 -1.638374 3.866428 2e-06 -6.338823 -1e-06 -1.697589 -22.591747 -6.194008 1e-06 -4e-06 -2e-06 60.026333 -76.575867 137.023361 56.858971 -60.895603 -11.894755 20.226141 -0.378328 0.0728 -0.31742 -4.189855 16.542732 22.182108 -20.375896 49.933327 -16.701813 -16.74353 28.476534 -3e-06 -12.690601 -3e-06 16.166378 -17.6094 2.627054 -0.10592 -1.513856 -4.275882 -5.039041 -5.612873 -2.953557 3e-06 -11.020525 -0.0 -6.111298 -15.895334 -3.840472 -1e-06 -1e-06 2e-06 -10.283371 -5.680289 -4.341839 11.028294 -11.302405 -2.372632 -1.384268 -14.238581 -6.320124 -0.62544 -26.924191 -3.827599 -4.233882 -49.859741 -3.802446 -13.708525 -7.363479 -3.720939 18.141148 -14.052739 -3.242674 5e-06 -18.787271 -2e-06 -0.429713 -8.456046 2.555505 -0.0 2e-06 0.0 -15.923536 -20.094484 -5.473583 30.41921 -7.190823 1.735924 4e-06 -8.162929 1e-06 -1.861902 -22.861473 -6.167942 -1e-06 -3e-06 -2e-06 -175.403534 -1.105989 -7.120347 7.969822 0.010555 -0.068167 -79.613632 1.554651 -4.351079 -4.348818 1.318207 2.105832 -0.999999 0.0 0.0 -0.377409 -6.697762 1.093157 16.969368 -0.027448 0.081475 -83.476585 -1.598877 -7.64909 -5.192289 0.761502 1.658559 -1.000002 -0.0 0.0 
0.0 0.0 0.0 0.0 -0.0 0.0 5.142856 99.665108 1.588731 92.223183 1.90782 90.216072 -4.122525 -0.275389 -0.06709 -12.691548 -0.77297 0.199293 22.507444 -1.74834 -2.432961 18.894281 4.043901 2.346999 -2.39709 -0.911445 -0.841765 -22.354465 -0.905816 -1.612554 6e-06 -0.0 -0.0 -0.072802 0.007277 0.064003 -0.008342 0.136135 0.086738 0.007744 -0.123082 0.03886 -102.341324 -76.972641 117.731277 46.368965 -61.18177 6.939479 25.171865 -0.071168 0.115299 1.228133 -1.087404 16.804131 17.636635 -26.322733 52.411198 -19.466658 -14.395598 29.410389 -0.0 -8.774822 -3e-06 15.832218 -18.097372 6.234275 -0.609776 -1.795652 -3.889327 -4.807088 -11.046807 -2.93785 5e-06 -20.976011 -0.0 -5.01997 -25.033556 -4.031878 6e-06 -0.0 -2e-06 -10.634534 -5.686968 -3.565589 10.573274 -17.922947 -3.113899 4e-06 -13.821205 -1e-06 -0.501781 -31.181498 -4.027012 -11.046623 -59.737995 7.223533 -13.982715 -7.150197 -2.875043 13.772731 -8.401491 -3.21824 0.347735 -34.211544 0.771655 -0.96303 -17.733368 2.621022 1e-06 1e-06 0.0 -17.346422 -20.095217 -4.201783 21.757561 -1.638376 3.866428 1e-06 -6.338822 2e-06 -1.69759 -22.591747 -6.194008 1e-06 -3e-06 -1e-06 59.813068 -76.558098 137.362198 57.378262 -60.845997 -12.943862 20.246147 -0.38642 0.08201 -0.185518 -3.8813 16.387543 22.182121 -20.375893 49.933315 -16.701813 -16.74353 28.47653 -3e-06 -12.690601 -1e-06 16.186892 -17.62182 2.596759 -0.10592 -1.513856 -4.275879 -5.039041 -5.612871 -2.953556 3e-06 -11.020523 0.0 -6.111301 -15.895334 -3.840472 -1e-06 -1e-06 3e-06 -10.283373 -5.680288 -4.341837 11.028296 -11.302406 -2.372633 -1.384268 -14.238583 -6.320121 -0.625442 -26.924192 -3.827599 -4.244559 -49.912235 -3.806054 -13.708527 -7.363476 -3.720933 18.141153 -14.052739 -3.242677 5e-06 -18.78727 -3e-06 -0.42971 -8.456041 2.555503 -1e-06 0.0 0.0 -15.923541 -20.094484 -5.473579 30.419218 -7.190825 1.735924 4e-06 -8.162929 1e-06 -1.861901 -22.861473 -6.167944 0.0 -3e-06 -0.0 -175.323105 -1.020482 -6.989113 7.367534 0.021418 -0.008473 -79.241585 1.574645 -4.492465 -4.400809 1.350337 2.117541 -0.999998 0.0 0.0 -0.513735 -6.744939 1.033245 16.874126 -0.041524 0.105991 -83.366058 -1.820541 -7.517558 -5.234494 0.752637 1.660005 -1.000002 -0.0 0.0 
0.0 0.0 0.0 0.0 -0.0 0.0 4.99922 99.677292 1.553007 92.374039 1.78499 90.347107 -4.006703 -0.443859 -0.047841 -12.670163 -0.802989 0.165933 22.528645 -1.742731 -2.400106 19.026522 4.217197 2.344203 -2.418246 -0.902436 -1.014612 -22.578506 -0.822626 -1.879262 6e-06 -0.0 -0.0 -0.07532 0.006993 0.066614 -0.022202 0.135718 0.09148 -0.016731 -0.122258 0.038217 -100.811981 -77.057938 116.171043 46.506142 -61.609715 5.956217 25.490517 -0.016808 0.069517 1.213041 -1.212472 16.686121 17.636623 -26.322721 52.411179 -19.466652 -14.395594 29.410381 0.0 -8.774819 -1e-06 15.862679 -18.134167 6.232541 -0.609776 -1.795653 -3.889327 -4.807088 -11.046809 -2.937849 3e-06 -20.976015 -1e-06 -5.019972 -25.033556 -4.031879 6e-06 -0.0 1e-06 -10.634532 -5.68697 -3.565586 10.573271 -17.922947 -3.113901 2e-06 -13.821205 -1e-06 -0.501781 -31.181498 -4.027013 -11.086419 -59.744335 7.250332 -13.982712 -7.150198 -2.875044 13.772727 -8.401489 -3.21824 0.347731 -34.211544 0.771654 -0.96303 -17.73337 2.621019 -1e-06 2e-06 0.0 -17.346418 -20.095217 -4.201778 21.757555 -1.638373 3.866426 -0.0 -6.338822 2e-06 -1.697591 -22.591747 -6.194005 1e-06 -3e-06 -1e-06 59.522625 -76.586525 137.71199 57.903385 -60.90094 -14.045184 20.382805 -0.402467 0.080405 -0.143003 -3.485364 16.658239 22.182117 -20.375895 49.933319 -16.701817 -16.74353 28.476522 -3e-06 -12.690603 -2e-06 16.185301 -17.645884 2.612052 -0.10592 -1.513857 -4.275884 -5.039041 -5.612871 -2.953555 3e-06 -11.020521 -0.0 -6.1113 -15.89533 -3.840471 -0.0 -1e-06 3e-06 -10.283371 -5.680289 -4.341839 11.028296 -11.302404 -2.372634 -1.384267 -14.23858 -6.320125 -0.625442 -26.924191 -3.827599 -4.241912 -49.91872 -3.859219 -13.708527 -7.363476 -3.720938 18.141148 -14.052737 -3.242673 6e-06 -18.78727 -3e-06 -0.429711 -8.456043 2.555504 0.0 0.0 0.0 -15.923536 -20.094482 -5.473587 30.419214 -7.190826 1.735927 4e-06 -8.162927 2e-06 -1.861904 -22.861469 -6.167942 0.0 -2e-06 -1e-06 -175.280716 -0.940354 -6.850309 6.885744 0.032416 -0.005474 -78.905632 1.756633 -4.637243 -4.327659 1.350083 2.130057 -0.999998 -0.0 0.0 -0.777996 -6.812419 0.923699 17.152767 -0.053823 0.144116 -83.464996 -2.135669 -7.275275 -5.229811 0.759603 1.665707 -1.000002 0.0 0.0 
0.0 0.0 0.0 0.0 -0.0 0.0 4.767403 99.569206 1.481043 92.595352 1.714534 90.463821 -3.855447 -0.633884 -0.04542 -12.604425 -0.833845 0.205025 22.506668 -1.846594 -2.300324 19.09001 4.49442 2.435677 -2.366814 -0.91481 -1.323232 -22.855062 -0.657816 -2.308782 6e-06 0.0 0.0 -0.054135 0.006464 0.092367 -0.035516 0.131136 0.104728 -0.026354 -0.119001 0.074277 -98.26915 -77.260078 113.607521 46.791245 -62.173233 5.126317 25.787659 0.163789 0.096451 1.296273 -1.321663 16.479464 17.636635 -26.322727 52.411182 -19.466665 -14.395597 29.410393 -2e-06 -8.774823 0.0 15.802811 -17.994102 6.217997 -0.609776 -1.795654 -3.889327 -4.807087 -11.046811 -2.937851 7e-06 -20.976019 -2e-06 -5.019968 -25.033556 -4.031882 5e-06 0.0 -1e-06 -10.634534 -5.68697 -3.565588 10.573276 -17.922953 -3.1139 6e-06 -13.821209 -3e-06 -0.501777 -31.181505 -4.027012 -11.001122 -59.627537 7.20215 -13.982715 -7.150198 -2.875041 13.772731 -8.401494 -3.218242 0.34774 -34.211555 0.771651 -0.963027 -17.73337 2.62102 0.0 2e-06 2e-06 -17.346416 -20.095217 -4.20178 21.757561 -1.638377 3.866427 2e-06 -6.338824 -0.0 -1.697587 -22.591749 -6.194006 -1e-06 -2e-06 -1e-06 59.612976 -76.600418 137.91568 58.952736 -60.923138 -15.341809 20.484426 -0.212874 0.134428 0.158002 -3.257198 17.061213 22.18211 -20.375893 49.933319 -16.701817 -16.74353 28.47653 -4e-06 -12.690602 -1e-06 16.144279 -17.583515 2.560334 -0.10592 -1.513857 -4.275882 -5.03904 -5.612871 -2.953556 4e-06 -11.020523 -0.0 -6.111299 -15.89533 -3.84047 -0.0 -1e-06 2e-06 -10.283371 -5.680288 -4.341838 11.028296 -11.302404 -2.372633 -1.384268 -14.238577 -6.320122 -0.625438 -26.924187 -3.827599 -4.036409 -49.577415 -4.182199 -13.708525 -7.363475 -3.720937 18.141148 -14.052739 -3.242673 8e-06 -18.78727 -2e-06 -0.429712 -8.456039 2.555504 -0.0 -0.0 -1e-06 -15.923534 -20.094481 -5.473581 30.41921 -7.190823 1.735924 3e-06 -8.162927 -0.0 -1.861902 -22.861469 -6.167942 -0.0 -2e-06 -1e-06 -175.968842 -0.989871 -6.768725 8.065294 0.075491 0.042824 -79.491776 1.994605 -5.002887 -4.520353 1.342112 2.118379 -0.999999 -0.0 -0.0 -1.58556 -6.9064 0.59148 18.602833 -0.144208 0.222314 -83.881332 -2.259976 -7.213583 -5.717095 0.676385 1.634562 -1.000002 -0.0 -0.0 
0.0 0.0 0.0 0.0 -0.0 0.0 4.341532 99.588715 1.447677 92.880699 1.776942 90.553711 -3.740286 -0.908099 0.017368 -12.593017 -0.903917 0.210995 22.61854 -1.881253 -2.304949 19.575083 4.689586 2.441364 -2.457963 -0.860353 -1.389907 -23.019655 -0.544179 -2.536465 6e-06 0.0 -0.0 -0.057406 0.006603 0.046187 -0.040042 0.135944 0.070675 -0.052913 -0.121597 0.016865 -96.35952 -77.360214 111.823868 46.669464 -62.340229 4.540797 26.155289 0.095869 0.05854 1.238074 -1.408105 16.551573 17.636625 -26.322729 52.41119 -19.46666 -14.395597 29.410389 -0.0 -8.774821 -1e-06 15.74346 -18.102875 6.268741 -0.609776 -1.795653 -3.889325 -4.807088 -11.046809 -2.937849 5e-06 -20.976011 -3e-06 -5.019972 -25.033552 -4.03188 7e-06 -1e-06 -1e-06 -10.634534 -5.68697 -3.565586 10.573272 -17.922947 -3.113903 3e-06 -13.821208 -1e-06 -0.501777 -31.181498 -4.027014 -11.124175 -59.634949 7.285752 -13.982712 -7.150198 -2.875038 13.772727 -8.401489 -3.218244 0.347733 -34.211544 0.771655 -0.963031 -17.73337 2.621022 1e-06 3e-06 1e-06 -17.346416 -20.095213 -4.201782 21.757557 -1.638373 3.866425 1e-06 -6.338822 2e-06 -1.69759 -22.591742 -6.194004 0.0 -4e-06 -0.0 59.702221 -76.752892 137.812515 59.630798 -61.082779 -16.355829 20.807684 -0.349606 0.094876 -0.081141 -3.017966 17.570749 22.182108 -20.375895 49.933319 -16.701809 -16.743528 28.476534 -3e-06 -12.690601 -3e-06 16.078852 -17.612711 2.623985 -0.105919 -1.513857 -4.275883 -5.039041 -5.612872 -2.953557 3e-06 -11.020524 0.0 -6.111297 -15.895332 -3.840474 -0.0 -1e-06 3e-06 -10.283368 -5.680288 -4.341839 11.028293 -11.302404 -2.372635 -1.384268 -14.238583 -6.320123 -0.62544 -26.924191 -3.8276 -4.1598 -49.733402 -3.991847 -13.708524 -7.363476 -3.720937 18.141146 -14.052737 -3.242676 6e-06 -18.78727 -1e-06 -0.429714 -8.456041 2.555505 -1e-06 1e-06 1e-06 -15.923534 -20.094484 -5.473586 30.41921 -7.190822 1.735926 3e-06 -8.162927 1e-06 -1.861902 -22.861469 -6.167944 -2e-06 -3e-06 0.0 -175.235779 -0.849304 -6.725368 6.601292 0.039474 0.018548 -78.630905 2.237538 -5.249416 -4.257357 1.340307 2.134572 -0.999999 0.0 -0.0 -1.733862 -6.961939 0.607863 19.044018 -0.066461 0.179255 -84.326797 -2.848382 -6.548245 -5.230799 0.731594 1.678293 -1.000003 -0.0 -0.0 
